<?xml version="1.0" encoding="utf-8"?>
<!-- Generator: Adobe Illustrator 21.0.0, SVG Export Plug-In . SVG Version: 6.00 Build 0)  -->
<svg version="1.1" id="Шар_1" xmlns="http://www.w3.org/2000/svg" xmlns:xlink="http://www.w3.org/1999/xlink" x="0px" y="0px"
	 viewBox="0 0 95 64" style="enable-background:new 0 0 95 64;" xml:space="preserve">
<style type="text/css">
	.st0{fill:#DE2B20;}
</style>
<title>Delivery Truck</title>
<desc>A line styled icon from Orion Icon Library.</desc>
<g>
	<path class="st0" d="M68.4,48.7c-0.6,0-1-0.4-1-1v-4.9L65,40.4c-0.1-0.1-0.1-0.2-0.2-0.3l-3.7-7.4h-8.7c-0.6,0-1-0.4-1-1s0.4-1,1-1
		h9.3c0.4,0,0.7,0.2,0.9,0.6l3.9,7.9l2.6,2.6c0.2,0.2,0.3,0.4,0.3,0.7v5.3C69.4,48.3,69,48.7,68.4,48.7z"/>
</g>
<g>
	<path class="st0" d="M52.4,48.7c-0.6,0-1-0.4-1-1V24.8H29.5v22.9c0,0.6-0.4,1-1,1s-1-0.4-1-1V23.8c0-0.6,0.4-1,1-1h23.9
		c0.6,0,1,0.4,1,1v23.9C53.4,48.3,53,48.7,52.4,48.7z"/>
</g>
<g>
	<path class="st0" d="M36.5,58c-2.8,0-5-2.2-5-5s2.2-5,5-5s5,2.2,5,5S39.3,58,36.5,58z M36.5,50c-1.7,0-3,1.3-3,3s1.3,3,3,3
		s3-1.3,3-3S38.2,50,36.5,50z"/>
</g>
<g>
	<path class="st0" d="M60.4,58c-2.8,0-5-2.2-5-5s2.2-5,5-5s5,2.2,5,5S63.2,58,60.4,58z M60.4,50c-1.7,0-3,1.3-3,3s1.3,3,3,3
		s3-1.3,3-3S62.1,50,60.4,50z"/>
</g>
<g>
	<path class="st0" d="M68.4,54h-4c-0.6,0-1-0.4-1-1s0.4-1,1-1h3v-3.3H29.5V52h3c0.6,0,1,0.4,1,1s-0.4,1-1,1h-4c-0.6,0-1-0.4-1-1
		v-5.3c0-0.6,0.4-1,1-1h39.9c0.6,0,1,0.4,1,1V53C69.4,53.6,69,54,68.4,54z M56.4,54h-16c-0.6,0-1-0.4-1-1s0.4-1,1-1h16
		c0.6,0,1,0.4,1,1S57,54,56.4,54z"/>
</g>
<path class="st0" d="M24.3,29.9c0,0.8-0.7,1.5-1.5,1.5H10c-0.8,0-1.5-0.7-1.5-1.5s0.7-1.5,1.5-1.5h12.8
	C23.6,28.5,24.3,29.1,24.3,29.9z M24.3,37.7c0,0.8-0.7,1.5-1.5,1.5h-9.9c-0.8,0-1.5-0.7-1.5-1.5s0.7-1.5,1.5-1.5h9.9
	C23.6,36.3,24.3,36.9,24.3,37.7z M24.3,45.6c0,0.8-0.7,1.5-1.5,1.5h-8c-0.8,0-1.5-0.7-1.5-1.5s0.7-1.5,1.5-1.5h8
	C23.6,44.1,24.3,44.7,24.3,45.6z"/>
</svg>
