<?xml version="1.0" encoding="utf-8"?>
<!-- Generator: Adobe Illustrator 21.0.0, SVG Export Plug-In . SVG Version: 6.00 Build 0)  -->
<svg version="1.1" id="Шар_1" xmlns="http://www.w3.org/2000/svg" xmlns:xlink="http://www.w3.org/1999/xlink" x="0px" y="0px"
	 viewBox="0 0 64 64" style="enable-background:new 0 0 64 64;" xml:space="preserve">
<style type="text/css">
	.st0{fill:#DE2B20;}
</style>
<title>Wallet</title>
<desc>A line styled icon from Orion Icon Library.</desc>
<path class="st0" d="M58,20.7H23.4c-1.4,0-2.5,1.1-2.5,2.5v23c0,1.4,1.1,2.5,2.5,2.5H58c1.4,0,2.5-1.1,2.5-2.5v-23
	C60.5,21.9,59.4,20.7,58,20.7z M54.2,23.7l-13.6,9.2l-13.9-9.2H54.2z M23.9,45.7V25.3l16,10.6c0.2,0.1,0.5,0.2,0.8,0.2
	s0.6-0.1,0.8-0.3l16-10.9v20.7L23.9,45.7L23.9,45.7z M18.3,26.9c0,0.8-0.7,1.5-1.5,1.5H4c-0.8,0-1.5-0.7-1.5-1.5s0.7-1.5,1.5-1.5
	h12.8C17.6,25.5,18.3,26.1,18.3,26.9z M18.3,34.7c0,0.8-0.7,1.5-1.5,1.5H6.9c-0.8,0-1.5-0.7-1.5-1.5s0.7-1.5,1.5-1.5h9.9
	C17.6,33.3,18.3,33.9,18.3,34.7z M18.3,42.6c0,0.8-0.7,1.5-1.5,1.5h-8c-0.8,0-1.5-0.7-1.5-1.5s0.7-1.5,1.5-1.5h8
	C17.6,41.1,18.3,41.7,18.3,42.6z"/>
</svg>
