<?xml version="1.0" encoding="utf-8"?>
<!-- Generator: Adobe Illustrator 21.0.0, SVG Export Plug-In . SVG Version: 6.00 Build 0)  -->
<svg version="1.1" id="Шар_1" xmlns="http://www.w3.org/2000/svg" xmlns:xlink="http://www.w3.org/1999/xlink" x="0px" y="0px"
	 viewBox="0 0 64 64" style="enable-background:new 0 0 64 64;" xml:space="preserve">
<style type="text/css">
	.st0{fill:#DE2B20;}
</style>
<title>Handshake</title>
<desc>A line styled icon from Orion Icon Library.</desc>
<g>
	<path class="st0" d="M54.2,41.1c-1.2,0-2.5-0.5-3.5-1.4l-5.4-5.4c-0.4-0.4-0.4-1,0-1.4s1-0.4,1.4,0l5.4,5.4
		c1.2,1.1,3.1,1.1,4.3-0.1c1.1-1.2,1.1-3,0-4.2l-1.3-1.3c0,0,0,0,0,0s0,0,0,0L43,20.6c-2.2-2.2-4.3-2.1-6.6,0.2l-0.8,0.8
		c-2,1.9-5.2,1.9-7.1-0.1c-1.9-1.9-1.9-5,0-6.9l2.8-2.8C34.6,8.5,36.6,7,39.9,7h4.3c0.3,0,0.5,0.1,0.7,0.3l17.8,17.8
		c0.4,0.4,0.4,1,0,1.4L57.2,32l0.6,0.6c1.9,2,1.9,5,0,7C56.8,40.6,55.5,41.1,54.2,41.1z M39.9,17c1.6,0,3.1,0.7,4.6,2.2l11.4,11.4
		l4.8-4.8L43.8,9h-3.9c-2.3,0-3.9,0.9-7.2,4.2L29.9,16c-1.1,1.1-1.1,3,0,4.1c1.2,1.2,3.1,1.2,4.3,0.1l0.8-0.8
		C36.6,17.8,38.2,17,39.9,17z"/>
</g>
<g>
	<path class="st0" d="M50,48.3c-1.3,0-2.6-0.5-3.6-1.5l-6.1-6.3c-0.4-0.4-0.4-1,0-1.4c0.4-0.4,1-0.4,1.4,0l6.1,6.3
		c1.1,1.1,3.1,1.2,4.3,0c0.6-0.6,0.9-1.3,0.9-2.1s-0.3-1.6-0.9-2.1l-6.8-6.8c-0.4-0.4-0.4-1,0-1.4s1-0.4,1.4,0l6.8,6.8
		c1,1,1.5,2.2,1.5,3.6s-0.5,2.6-1.5,3.6C52.5,47.8,51.3,48.3,50,48.3z"/>
</g>
<g>
	<path class="st0" d="M42.9,52.3c-1.2,0-2.5-0.4-3.4-1.3l-2.8-2.8c-0.4-0.4-0.4-1,0-1.4s1-0.4,1.4,0l2.8,2.8c1.2,1,3,1,4.1,0
		c1.2-1.2,1.3-3.1,0.2-4.3l-4.8-4.8c-0.4-0.4-0.4-1,0-1.4s1-0.4,1.4,0l4.8,4.8c1.9,2,1.8,5.1-0.2,7.1C45.4,51.9,44.1,52.3,42.9,52.3
		z"/>
</g>
<g>
	<path class="st0" d="M36.2,57c-1.3,0-2.5-0.5-3.5-1.4l-1.4-1.5c-0.4-0.4-0.4-1,0-1.4c0.4-0.4,1-0.4,1.4,0l1.4,1.5
		c1.1,1.1,3,1.1,4.1,0c1.2-1.2,1.2-3.1,0.1-4.3l-1.4-1.4c-0.4-0.4-0.4-1,0-1.4s1-0.4,1.4,0l1.4,1.4c1.9,2,1.9,5.2-0.1,7.1
		C38.7,56.5,37.5,57,36.2,57z M8.4,33c-0.3,0-0.5-0.1-0.7-0.3l-6.4-6.4c-0.4-0.4-0.4-1,0-1.4l16-16c0.2-0.2,0.5-0.3,0.7-0.3
		c0.3,0,0.5,0.1,0.7,0.4c0.6,0.7,2.1,2.1,3.1,2.1c1.6,0,2-0.4,3-1.4l0.3-0.3c2.6-2.6,6.5-2.3,9.4,0.6c0.4,0.4,0.4,1,0,1.4
		s-1,0.4-1.4,0C31,9.2,28.4,9,26.6,10.8l-0.3,0.3c-1.1,1.2-2,2-4.4,2c-1.5,0-3-1.2-3.9-2.1L3.4,25.6l5.7,5.7c0.4,0.4,0.4,1,0,1.4
		C8.9,32.9,8.7,33,8.4,33z"/>
</g>
<g>
	<path class="st0" d="M10,41.1c-1.3,0-2.5-0.5-3.5-1.4c-2-2-2-5.1-0.1-7.1l3-3c2.1-1.9,5.3-1.8,7.1,0.2c1.9,2.1,1.8,5.2-0.2,7.1
		l-2.9,2.8C12.4,40.7,11.2,41.1,10,41.1z M12.9,30.2c-0.7,0-1.5,0.3-2.1,0.8l-3,3c-1.1,1.2-1.1,3.1,0.1,4.3c1.1,1.1,3,1.1,4.1,0
		l2.9-2.8c0,0,0,0,0,0c1.2-1.1,1.3-3,0.1-4.3C14.5,30.5,13.7,30.2,12.9,30.2z"/>
</g>
<g>
	<path class="st0" d="M21.3,52.4c-1.3,0-2.5-0.5-3.5-1.4c-0.9-0.9-1.4-2.1-1.5-3.3c-1.8,0.8-4,0.5-5.5-1c-2-2-2-5.1-0.1-7.1l4.2-4.2
		c2-2,5.1-2,7.1,0c1,1,1.5,2.2,1.5,3.6c0,0.3,0,0.5-0.1,0.8c1.4-0.2,2.9,0.3,4,1.4c2,2,2.1,5.1,0.2,7.1c0,0,0,0,0,0L24.7,51
		C23.7,52,22.5,52.4,21.3,52.4z M18.9,45.5c-0.9,1.2-0.9,3,0.3,4.1c1.1,1.1,3,1.1,4.1,0l2.9-2.8c1.1-1.2,1-3.1-0.2-4.3
		c-1-1-2.5-1.1-3.7-0.3c-0.1,0.1-0.2,0.2-0.3,0.3c0,0,0,0,0,0L18.9,45.5z M26.9,47.5L26.9,47.5L26.9,47.5z M18.5,35.9
		c-0.8,0-1.5,0.3-2.1,0.9L12.1,41c-1.1,1.2-1.1,3.1,0.1,4.3c1.1,1.1,3,1.1,4.1,0l1.2-1.1c0.1-0.1,0.1-0.2,0.2-0.2l2.8-2.8
		c0.1-0.1,0.3-0.2,0.4-0.3c0.4-0.5,0.6-1.2,0.6-1.8c0-0.8-0.3-1.6-0.9-2.1C20,36.2,19.2,35.9,18.5,35.9z"/>
</g>
<g>
	<path class="st0" d="M28.1,56.9c-1.3,0-2.5-0.5-3.5-1.4c-2-2-2-5.1-0.1-7.1l1.4-1.4c1-1,2.2-1.5,3.6-1.5S32,46,33,47
		c1,1,1.5,2.2,1.5,3.6S34,53.1,33,54.1l0,0l-1.4,1.4C30.6,56.4,29.3,56.9,28.1,56.9z M29.5,47.5c-0.8,0-1.6,0.3-2.1,0.9l-1.4,1.4
		c-1.1,1.2-1.1,3.1,0.1,4.3c1.1,1.1,3,1.1,4.2,0l1.4-1.4c0.6-0.6,0.9-1.3,0.9-2.1s-0.3-1.6-0.9-2.1C31,47.8,30.2,47.5,29.5,47.5z
		 M32.3,53.4L32.3,53.4L32.3,53.4z"/>
</g>
</svg>
