<svg xmlns="http://www.w3.org/2000/svg" width="200" height="200" viewBox="0 0 200 200">
  <metadata><?xpacket begin="﻿" id="W5M0MpCehiHzreSzNTczkc9d"?>
<x:xmpmeta xmlns:x="adobe:ns:meta/" x:xmptk="Adobe XMP Core 5.6-c138 79.159824, 2016/09/14-01:09:01        ">
   <rdf:RDF xmlns:rdf="http://www.w3.org/1999/02/22-rdf-syntax-ns#">
      <rdf:Description rdf:about=""/>
   </rdf:RDF>
</x:xmpmeta>
                                                                                                    
                                                                                                    
                                                                                                    
                                                                                                    
                                                                                                    
                                                                                                    
                                                                                                    
                                                                                                    
                                                                                                    
                                                                                                    
                                                                                                    
                                                                                                    
                                                                                                    
                                                                                                    
                                                                                                    
                                                                                                    
                                                                                                    
                                                                                                    
                                                                                                    
                                                                                                    
                           
<?xpacket end="w"?></metadata>
<defs>
    <style>
      .cls-1 {
        fill: #dcdcdc;
        fill-rule: evenodd;
      }
    </style>
  </defs>
  <path class="cls-1" d="M88.686,99.314h0a2,2,0,0,1,0,2.828l-4.243,4.242a2,2,0,0,1-2.828,0h0a2,2,0,0,1,0-2.828l4.243-4.242A2,2,0,0,1,88.686,99.314Zm29.7-29.7h0a2,2,0,0,1,0,2.828l-4.243,4.243a2,2,0,0,1-2.828,0h0a2,2,0,0,1,0-2.828l4.243-4.243A2,2,0,0,1,118.385,69.614ZM84,88h0a2,2,0,0,1-2,2H76a2,2,0,0,1-2-2h0a2,2,0,0,1,2-2h6A2,2,0,0,1,84,88Zm42,0h0a2,2,0,0,1-2,2h-6a2,2,0,0,1-2-2h0a2,2,0,0,1,2-2h6A2,2,0,0,1,126,88ZM88.686,76.686h0a2,2,0,0,1-2.828,0l-4.243-4.243a2,2,0,0,1,0-2.828h0a2,2,0,0,1,2.828,0l4.243,4.243A2,2,0,0,1,88.686,76.686Zm29.7,29.7h0a2,2,0,0,1-2.828,0l-4.243-4.242a2,2,0,0,1,0-2.828h0a2,2,0,0,1,2.828,0l4.243,4.242A2,2,0,0,1,118.385,106.384ZM100,72h0a2,2,0,0,1-2-2V64a2,2,0,0,1,2-2h0a2,2,0,0,1,2,2v6A2,2,0,0,1,100,72Zm0,42h0a2,2,0,0,1-2-2v-6a2,2,0,0,1,2-2h0a2,2,0,0,1,2,2v6A2,2,0,0,1,100,114Z"/>
</svg>
