<?xml version="1.0" encoding="utf-8"?>
<!-- Generator: Adobe Illustrator 21.0.0, SVG Export Plug-In . SVG Version: 6.00 Build 0)  -->
<svg version="1.1" id="Шар_1" xmlns="http://www.w3.org/2000/svg" xmlns:xlink="http://www.w3.org/1999/xlink" x="0px" y="0px"
	 viewBox="0 0 200 200" style="enable-background:new 0 0 200 200;" xml:space="preserve">
<style type="text/css">
	.st0{fill:#FFFFFF;}
	.st1{fill:#FF2719;}
</style>
<path id="LOGO" class="st0" d="M89.7,14.7l-75.5,72c-6.7,6.4-7,17-0.6,23.7c0.1,0.1,0.1,0.1,0.2,0.2L87,184.9
	c6.7,6.7,17.4,6.8,24.3,0.4l75.5-71.9c6.7-6.4,7-17,0.6-23.7c-0.1-0.1-0.1-0.1-0.2-0.2L114,15.1C107.3,8.4,96.6,8.3,89.7,14.7
	L89.7,14.7L89.7,14.7z"/>
<path id="LOGO-2" class="st1" d="M93.9,44.1L44.4,91.3c-4.4,4.2-4.6,11.1-0.4,15.5c0,0,0.1,0.1,0.1,0.1l48,48.7
	c4.4,4.4,11.4,4.5,15.9,0.3l49.5-47.2c4.4-4.2,4.6-11.1,0.4-15.5c0,0-0.1-0.1-0.1-0.1l-48-48.7C105.5,40,98.4,39.9,93.9,44.1
	L93.9,44.1z M73.4,98.6c-0.1,0-0.3,0-0.4-0.1l-10-2.9c-0.2,0-0.3-0.1-0.5-0.2c-0.2-0.1-0.3-0.2-0.5-0.3c-0.1-0.1-0.3-0.2-0.4-0.3
	c-0.1-0.1-0.2-0.2-0.3-0.3l-4.9-7.7c-0.1-0.1-0.1-0.2-0.1-0.3c0,0,0-0.1,0-0.1c0,0,0.1-0.1,0.1-0.1c0,0,0.1,0,0.1,0
	c0.1,0,0.2,0,0.3,0l10.9,2.6c0.2,0.1,0.4,0.1,0.6,0.2c0.2,0.1,0.4,0.2,0.6,0.3c0.2,0.1,0.3,0.3,0.5,0.4c0.1,0.1,0.2,0.3,0.3,0.4l4,8
	c0,0.1,0.1,0.1,0.1,0.2c0,0,0,0.1-0.1,0.1C73.5,98.5,73.5,98.6,73.4,98.6L73.4,98.6L73.4,98.6z M57.1,85.9c-0.8-0.2-0.9-0.6-0.4-1.3
	l6.2-8.9c0.4-0.5,1.1-0.8,1.7-0.7l10.5,1.7c0.6,0.1,0.9,0.4,0.8,0.9l-6.1,10.1c-0.1,0.2-0.2,0.3-0.4,0.4c-0.2,0.1-0.3,0.2-0.5,0.3
	c-0.2,0.1-0.4,0.1-0.6,0.2c-0.1,0-0.2,0-0.2,0c-0.1,0-0.2,0-0.3,0L57.1,85.9L57.1,85.9z M80.6,87.8L80.6,87.8L80,86.6
	c0,0.1,0,0.2,0.1,0.3c0,0.2,0,0.3,0,0.5c0,0.2-0.1,0.4-0.1,0.5c0,0.2-0.1,0.3-0.2,0.5l-5,9.3c-0.1,0.1-0.2,0.3-0.3,0.4
	c-0.1,0.1-0.1,0.1-0.2,0.2c0,0,0,0-0.1,0c0,0,0,0-0.1,0c-0.1,0-0.1-0.1-0.1-0.2l-4-8c-0.1-0.2-0.1-0.3-0.1-0.5c0-0.2,0-0.4,0-0.6
	c0-0.2,0.1-0.4,0.1-0.6c0.1-0.2,0.1-0.4,0.2-0.6l6-9.9c0.1-0.1,0.2-0.2,0.3-0.3c0.1,0,0.1-0.1,0.2-0.1c0.1,0,0.1,0,0.2,0.1
	c0.1,0.1,0.1,0.2,0.2,0.3l0.6,1.8l3.8-4.8c0.1-0.1,0.1-0.1,0.2-0.2c0.1-0.1,0.2-0.2,0.4-0.2c0.1-0.1,0.3-0.2,0.5-0.2
	c0.2-0.1,0.3-0.1,0.5-0.2l10.6-3.4c0.2-0.1,0.3-0.1,0.5-0.1c0.1,0,0.2,0,0.3,0h0.1L92.1,75c-0.1,0.1-0.1,0.2-0.2,0.2
	c-0.1,0.1-0.3,0.2-0.4,0.3c-0.2,0.1-0.4,0.2-0.6,0.3c-0.2,0.1-0.4,0.2-0.6,0.2l-12.1,3.7c-0.2,0.1-0.3,0.1-0.5,0.1
	c-0.1,0-0.1,0-0.2,0l0.3,0.9l0,0c0.1-0.1,0.2-0.3,0.4-0.4c0,0,0.1-0.1,0.1-0.1c0.1-0.1,0.2-0.1,0.3-0.2l12-3.7
	c0.2-0.1,0.4-0.1,0.5-0.1c0.2,0,0.3,0.1,0.5,0.1c0.1,0.1,0.3,0.2,0.3,0.3c0.1,0.1,0.2,0.3,0.2,0.5l2.5,5.9l0,0l2.4,5.8
	c0.1,0.2,0.1,0.3,0.1,0.5c0,0.2-0.1,0.3-0.1,0.4c-0.1,0.1-0.2,0.3-0.3,0.4c-0.1,0.1-0.3,0.2-0.5,0.2l-11.8,2.9c-0.1,0-0.2,0-0.4,0
	c-0.1,0-0.1,0-0.2,0c-0.2,0-0.4-0.1-0.5-0.1c-0.2-0.1-0.3-0.2-0.4-0.3c-0.1-0.1-0.2-0.3-0.3-0.4L80.6,87.8L80.6,87.8L80.6,87.8z
	 M111.1,95.8c-0.1,0-0.2,0-0.3,0c-0.2,0-0.3-0.1-0.5-0.1c-0.2,0-0.4-0.1-0.5-0.2s-0.4-0.1-0.5-0.2l-10.7-4.7
	c-0.2-0.1-0.3-0.2-0.5-0.2c-0.1-0.1-0.2-0.2,0-0.2l4.3-1.2c0.1,0,0.1,0,0.2,0c0,0,0.1,0,0.1,0c0.2,0,0.4,0,0.5,0.1
	c0.2,0,0.4,0.1,0.6,0.2s0.4,0.2,0.7,0.3l12.1,5.5c0.2,0.1,0.3,0.2,0.5,0.2c0,0,0.1,0.1,0.1,0.1L111.1,95.8
	C111.1,95.8,111.1,95.8,111.1,95.8L111.1,95.8L111.1,95.8z M108.4,74.4l-1,2.7l-3.9,9.9c-0.1,0.2-0.2,0.4-0.3,0.6
	c-0.1,0.2-0.2,0.4-0.3,0.5c-0.1,0.1-0.2,0.3-0.3,0.4c-0.1,0.1-0.1,0.1-0.2,0.2c0,0-4.1,1.1-4.4,1.2s-0.3-0.1-0.3-0.2s0-0.1,0-0.2
	c0-0.1,0-0.1,0-0.2c0,0,0,0-0.1-0.1c-0.1-0.1-0.2-0.3-0.2-0.4l-4.7-11.6c-0.1-0.2-0.2-0.4-0.2-0.6c-0.1-0.2-0.1-0.4-0.1-0.6
	c0-0.2,0-0.3,0-0.5c0-0.1,0-0.2,0.1-0.3l2.2-4.4c0,0,0,0,0,0c0.1,0.1,0.1,0.2,0.2,0.3c0.1,0.1,0.2,0.3,0.2,0.5l4,10.2
	c0.1,0.2,0.1,0.3,0.2,0.5c0,0.2,0.1,0.3,0.1,0.5c0,0.1,0,0.3,0,0.4c0,0.1,0,0.2,0,0.3L98.2,88l3.1-7.7l0.9-2.3
	c0.1-0.2,0.2-0.3,0.2-0.5c0.1-0.2,0.2-0.3,0.3-0.5c0.1-0.1,0.2-0.2,0.3-0.4c0.1-0.1,0.1-0.1,0.2-0.2l5.2-2.9
	c0.2-0.1,0.2,0.1,0.1,0.3C108.6,74,108.5,74.2,108.4,74.4L108.4,74.4L108.4,74.4z M130,95.2c-0.1,0-0.3,0-0.4,0
	c-0.1,0-0.2,0-0.3-0.1l-5.2-3.1c0,0,0,0-0.1-0.1c0,0,0,0,0.1-0.1c0.1-0.1,0.2-0.1,0.3-0.2c0.2-0.1,0.4-0.1,0.5-0.2l13.4-3.3
	c0.2-0.1,0.5-0.1,0.7-0.1c0.2,0,0.4,0,0.5,0h0.1c0.2,0,0.3,0,0.5,0.1c0.1,0,0.2,0.1,0.2,0.1l3.4,3.6c0,0-0.1,0.1-0.1,0.1
	c-0.1,0.1-0.2,0.1-0.4,0.2c-0.2,0.1-0.3,0.1-0.5,0.2l-11.7,2.8c-0.2,0-0.4,0.1-0.6,0.1C130.4,95.2,130.2,95.2,130,95.2L130,95.2
	L130,95.2z M140.7,88c-0.1-0.1-0.1-0.2-0.2-0.3c-0.1-0.2-0.2-0.3-0.2-0.5c-0.1-0.2-0.1-0.4-0.2-0.6s-0.1-0.5-0.2-0.7l-2.4-12.7
	c0-0.2-0.1-0.3-0.1-0.5c0,0,0,0,0,0l3.5,5.1c0.1,0.1,0.1,0.2,0.2,0.3c0.1,0.1,0.1,0.3,0.2,0.4s0.1,0.3,0.2,0.5s0.1,0.4,0.1,0.5
	l2.3,11.1c0,0.2,0.1,0.4,0.1,0.5c0,0.1,0,0.1,0,0.2L140.7,88L140.7,88L140.7,88z M139.6,86c0,0.2,0,0.4,0,0.6c0,0.2-0.1,0.4-0.2,0.6
	c-0.2,0.4-0.6,0.6-1,0.7l-13.4,3.3c-0.1,0-0.2,0-0.4,0c-0.1,0-0.1,0-0.2,0c-0.2,0-0.3-0.1-0.5-0.2c-0.1-0.1-0.3-0.2-0.4-0.4
	c-0.1-0.2-0.2-0.3-0.2-0.5l0-0.3l-1.6-12.1c0-0.2,0-0.4,0-0.5c0-0.2,0.1-0.3,0.2-0.5c0.1-0.2,0.2-0.3,0.4-0.4
	c0.2-0.1,0.3-0.2,0.5-0.3l12.6-3.6c0.2,0,0.3-0.1,0.5-0.1c0,0,0.1,0,0.1,0c0.2,0,0.3,0.1,0.5,0.1c0.1,0.1,0.3,0.2,0.4,0.3
	c0.1,0.1,0.2,0.3,0.2,0.5l1.4,7.3L139.6,86L139.6,86L139.6,86z M67.8,127.1c-0.2,0-0.3,0-0.5,0c-0.1,0-0.2,0-0.3-0.1l-6-3.6
	c0,0-0.1,0-0.1-0.1c0,0,0-0.1,0.1-0.1c0.1-0.1,0.2-0.2,0.3-0.2c0.2-0.1,0.4-0.2,0.6-0.2l15.7-3.9c0.3-0.1,0.5-0.1,0.8-0.1
	c0.2,0,0.4,0,0.6,0c0,0,0.1,0,0.1,0c0.2,0,0.4,0,0.6,0.1c0.1,0,0.2,0.1,0.3,0.1l4,4.2c0,0.1-0.1,0.1-0.1,0.1
	c-0.1,0.1-0.3,0.2-0.4,0.2c-0.2,0.1-0.4,0.1-0.6,0.2l-13.6,3.2c-0.2,0.1-0.4,0.1-0.7,0.1C68.3,127.1,68,127.1,67.8,127.1L67.8,127.1
	L67.8,127.1z M76.1,101.6l1.6,8.5l1.2,6.3c0,0.2,0,0.5,0,0.7c-0.1,0.2-0.1,0.5-0.3,0.6c-0.1,0.2-0.3,0.4-0.5,0.5
	c-0.2,0.1-0.4,0.3-0.7,0.3l-15.7,3.9c-0.1,0-0.3,0.1-0.4,0.1c-0.1,0-0.2,0-0.2,0c-0.2,0-0.4-0.1-0.6-0.2c-0.2-0.1-0.3-0.3-0.4-0.4
	c-0.1-0.2-0.2-0.4-0.2-0.6l0-0.3l-1.8-14.1c0-0.2,0-0.4,0-0.6c0.1-0.2,0.2-0.4,0.3-0.6c0.1-0.2,0.3-0.3,0.5-0.5
	c0.2-0.1,0.4-0.2,0.6-0.3l14.7-4.2c0.2-0.1,0.4-0.1,0.5-0.1c0,0,0.1,0,0.1,0c0.2,0,0.4,0.1,0.6,0.2c0.2,0.1,0.3,0.2,0.4,0.4
	C76,101.2,76.1,101.4,76.1,101.6L76.1,101.6L76.1,101.6z M80.3,118.7c-0.1-0.1-0.2-0.2-0.2-0.3c-0.1-0.2-0.2-0.4-0.3-0.6
	c-0.1-0.2-0.2-0.5-0.2-0.7s-0.1-0.5-0.2-0.8l-2.8-14.8c0-0.2-0.1-0.4-0.1-0.6c0,0,0,0,0,0l4.1,5.9c0.1,0.1,0.1,0.2,0.2,0.3
	c0.1,0.2,0.1,0.3,0.2,0.5s0.1,0.4,0.2,0.6s0.1,0.4,0.2,0.6l2.6,13c0,0.2,0.1,0.4,0.1,0.6c0,0.1,0,0.2,0,0.2L80.3,118.7L80.3,118.7
	L80.3,118.7z M99.2,101.6l-1.2,3.1l-4.5,11.5c-0.1,0.2-0.2,0.5-0.3,0.7c-0.1,0.2-0.2,0.4-0.4,0.6c-0.1,0.2-0.2,0.3-0.4,0.4
	c-0.1,0.1-0.2,0.1-0.3,0.2c0,0-4.8,1.3-5.1,1.4s-0.3-0.1-0.3-0.2s0-0.2,0.1-0.2c0.1-0.2,0.1-0.4,0.2-0.6l4.1-10l1.1-2.7
	c0.1-0.2,0.2-0.4,0.3-0.6c0.1-0.2,0.2-0.4,0.3-0.5c0.1-0.1,0.2-0.3,0.3-0.4c0.1-0.1,0.2-0.2,0.3-0.2l6-3.4c0.3-0.1,0.2,0.1,0.1,0.3
	C99.3,101.2,99.3,101.4,99.2,101.6L99.2,101.6L99.2,101.6z M102.2,126.6c-0.1,0-0.2,0-0.3,0c-0.2,0-0.4-0.1-0.5-0.1
	c-0.2-0.1-0.4-0.1-0.6-0.2s-0.4-0.2-0.6-0.2l-12.4-5.5c-0.2-0.1-0.4-0.2-0.6-0.3c-0.1-0.1-0.2-0.2,0-0.3l5.1-1.4c0.1,0,0.1,0,0.2,0
	c0,0,0.1,0,0.2,0c0.2,0,0.4,0.1,0.6,0.1c0.2,0.1,0.5,0.1,0.7,0.2s0.5,0.2,0.8,0.3l14.1,6.4c0.2,0.1,0.4,0.2,0.5,0.3
	c0.1,0,0.1,0.1,0.2,0.1L102.2,126.6C102.3,126.6,102.3,126.6,102.2,126.6L102.2,126.6L102.2,126.6z M115.9,109.5
	c0,0.2,0,0.4-0.1,0.6l-0.1,0.4l-4.7,13.7c-0.1,0.2-0.2,0.4-0.3,0.6c-0.1,0.2-0.3,0.3-0.5,0.4c-0.2,0.1-0.4,0.1-0.6,0.1h0
	c-0.2,0-0.4,0-0.6-0.1l-14.1-6.4c-0.2-0.1-0.4-0.2-0.6-0.4c-0.2-0.2-0.3-0.4-0.4-0.6c-0.1-0.2-0.1-0.4-0.1-0.6c0,0,0-0.1,0-0.1
	c0-0.2,0-0.5,0.1-0.7l5.7-14.6c0.1-0.2,0.2-0.4,0.4-0.5c0.1-0.1,0.3-0.2,0.5-0.3c0.2-0.1,0.3-0.1,0.5-0.1c0,0,0.1,0,0.1,0
	c0.2,0,0.4,0.1,0.6,0.2l13.3,6.9c0.2,0.1,0.4,0.2,0.5,0.4C115.7,108.6,115.9,109,115.9,109.5L115.9,109.5L115.9,109.5z M135.5,106.2
	c0.2,0.2,0.3,0.4,0.4,0.6l1.6,3.9l4.2,10.4c0.1,0.2,0.1,0.4,0.1,0.6c0,0.2-0.1,0.4-0.2,0.5c-0.1,0.2-0.2,0.3-0.4,0.4
	c-0.2,0.1-0.4,0.2-0.6,0.3l-14.5,3.6c-0.1,0-0.3,0.1-0.5,0.1c-0.1,0-0.1,0-0.2,0c-0.2,0-0.4-0.1-0.6-0.2c-0.2-0.1-0.4-0.2-0.5-0.4
	c-0.2-0.1-0.3-0.3-0.4-0.5l-2.7-5.8l-3.6-7.6c-0.1-0.2-0.1-0.4-0.2-0.6c0-0.2,0-0.4,0.1-0.6c0.1-0.2,0.2-0.3,0.3-0.5
	c0.2-0.1,0.3-0.2,0.5-0.3l14.9-4.5c0.2-0.1,0.4-0.1,0.6-0.1c0,0,0.1,0,0.1,0C134.7,105.6,135.2,105.8,135.5,106.2L135.5,106.2
	L135.5,106.2z M142.5,121.7c-0.1-0.1-0.2-0.2-0.2-0.3c-0.1-0.2-0.2-0.4-0.3-0.5l-5.8-14.3c-0.1-0.2-0.2-0.5-0.3-0.8
	c-0.1-0.2-0.1-0.5-0.2-0.7c0-0.2,0-0.4,0-0.6c0-0.1,0-0.2,0.1-0.4l2.8-5.5c0,0,0,0,0.1,0.1c0.1,0.1,0.2,0.2,0.2,0.3
	c0.1,0.2,0.2,0.4,0.3,0.6l4.9,12.6c0.1,0.2,0.1,0.4,0.2,0.6c0.1,0.2,0.1,0.4,0.1,0.6c0,0.2,0.1,0.4,0.1,0.5c0,0.1,0,0.2,0,0.4
	l-1.9,7.2C142.5,121.7,142.5,121.7,142.5,121.7L142.5,121.7L142.5,121.7z M118,109.8c0,0-0.1,0-0.1,0
	C117.9,109.8,118,109.8,118,109.8l4.6-5.9c0.1-0.1,0.2-0.2,0.3-0.2c0.2-0.1,0.3-0.2,0.5-0.3c0.2-0.1,0.4-0.2,0.6-0.3
	s0.4-0.2,0.6-0.2l12.3-3.9c0.2-0.1,0.4-0.1,0.6-0.2c0.1,0,0.3,0,0.4,0c0,0,0.1,0,0.1,0l-2.7,5.2c-0.1,0.1-0.2,0.2-0.3,0.3
	c-0.2,0.1-0.3,0.3-0.5,0.4c-0.2,0.1-0.4,0.2-0.7,0.3c-0.2,0.1-0.5,0.2-0.8,0.3l-14.1,4.5c-0.2,0.1-0.4,0.1-0.6,0.1
	C118.2,109.8,118.1,109.8,118,109.8L118,109.8L118,109.8z M98.2,52.7L73.5,76.2L66.2,75l30.3-28.9c3-2.9,7.8-2.8,10.7,0.2l26.1,26.5
	l-6.5,1.9l-21.6-21.9C103.4,50.8,100.2,50.8,98.2,52.7L98.2,52.7L98.2,52.7z M57.1,83.7l-0.8,1.1c-0.4,0.6-0.4,1.4,0,2l2.3,3.6
	L53,95.7c-2,1.9-2,5-0.2,7c0,0,0,0,0.1,0.1l5.2,5.3l0.2,1.7l1,8l-13.1-13.3c-2.9-2.9-2.8-7.6,0.1-10.5c0,0,0.1-0.1,0.1-0.1
	L57.1,83.7L57.1,83.7z M68.7,127.3c0.1,0,0.1,0,0.2,0l6.6-1.6l21.2,21.5c2,2,5.1,2,7.1,0.1l21.5-20.5c0.4,0.1,0.8,0.1,1.2,0
	l10.2-2.5L105.5,154c-3,2.8-7.8,2.8-10.7-0.2L68.7,127.3L68.7,127.3L68.7,127.3z M144.1,117.3l0.5-1.9c0.3-1,0.2-2.1-0.2-3.1l-1-2.7
	l5.6-5.4c2-1.9,2-5,0.2-7c0,0,0,0-0.1-0.1L144,92c0,0,0.1-0.1,0.1-0.1c0.1-0.2,0.2-0.5,0.1-0.7l-1.9-9.4l13.6,13.8
	c2.9,2.9,2.8,7.6-0.1,10.4c0,0-0.1,0.1-0.1,0.1L144.1,117.3L144.1,117.3L144.1,117.3z M121.8,79.7l0.5,3.5l-3.7,10.7
	c-0.1,0.2-0.2,0.4-0.3,0.5c-0.1,0.1-0.3,0.2-0.4,0.3c-0.2,0.1-0.3,0.1-0.5,0.1h0c-0.2,0-0.3,0-0.5-0.1l-12.1-5.5
	c-0.2-0.1-0.4-0.2-0.5-0.4c-0.1-0.2-0.3-0.3-0.3-0.5c-0.1-0.2-0.1-0.3-0.1-0.5c0,0,0-0.1,0-0.1c0-0.2,0-0.4,0.1-0.6l4.9-12.6
	c0.1-0.2,0.2-0.3,0.3-0.5c0.1-0.1,0.3-0.2,0.4-0.3c0.1,0,0.3-0.1,0.4-0.1c0,0,0.1,0,0.1,0c0.2,0,0.4,0.1,0.5,0.2L121.8,79.7z
	 M113.9,78.8l-0.5,1.1l-0.8-0.3c-2.9-1.3-5-0.1-5.8,1.9c-0.9,2.1-0.2,4.2,2.7,5.5l0.8,0.3l-0.6,1.4l3.3,1.4l0.6-1.4l0.8,0.3
	c2.9,1.2,4.9,0.3,5.8-1.9c0.9-2,0.2-4.2-2.7-5.5l-0.8-0.3l0.5-1.1L113.9,78.8L113.9,78.8L113.9,78.8z M111.3,85l-0.6-0.3
	c-0.7-0.4-1-1.3-0.7-2s1.3-1,2-0.7l0.4,0.2L111.3,85L111.3,85L111.3,85z M115.8,83.7l0.4,0.2c0.7,0.2,1.2,0.8,1,1.6
	c0,0.1-0.1,0.3-0.2,0.4c-0.2,0.7-0.8,1.1-1.5,1c-0.1,0-0.2-0.1-0.3-0.1l-0.6-0.3L115.8,83.7z M105.4,80.3l-0.4,0.1l0.2-0.6
	c0.9-2.4,0.7-3.3,0-3.1c-0.8,0.2-1.7,1.4-2.6,3.7l-0.2,0.7l-0.5,0.1l-1,2.7l0.5-0.1l-0.2,0.7c-0.9,2.3-0.7,3.3,0.1,3.1
	c0.7-0.2,1.7-1.4,2.6-3.7L104,83l0.4-0.1L105.4,80.3L105.4,80.3L105.4,80.3z M103.2,80.8l0.2-0.5c0.1-0.5,0.4-0.9,0.9-1.1
	c0.3-0.1,0.4,0.2,0.1,1l-0.1,0.4L103.2,80.8L103.2,80.8L103.2,80.8z M103.2,83.2l-0.1,0.4c-0.1,0.5-0.4,1-0.9,1.3
	c-0.3,0.1-0.4-0.2-0.1-0.9l0.2-0.5L103.2,83.2z M110,92.8l-0.4,0.1l0.6,0.3c2.3,1,2.8,1.6,2.1,1.8c-0.7,0.2-2.2-0.2-4.4-1.2
	l-0.6-0.3l-0.4,0.1l-2.5-1.1l0.4-0.1l-0.6-0.3c-2.2-1-2.8-1.6-2.1-1.7c0.6-0.2,2.2,0.2,4.4,1.2l0.6,0.3l0.4-0.1L110,92.8
	C110,92.8,110,92.8,110,92.8z M108.1,93.3l0.5,0.2c0.4,0.2,0.9,0.3,1.4,0.3c0.3-0.1,0.1-0.2-0.7-0.6l-0.3-0.2L108.1,93.3L108.1,93.3
	L108.1,93.3z M106.4,91.9l-0.3-0.2c-0.5-0.3-1-0.4-1.5-0.4c-0.3,0.1-0.1,0.2,0.5,0.5l0.5,0.2L106.4,91.9z M84.1,80.6l-3.3,0.8
	l4.2,9.2l3.3-0.8L86.6,86l3.1-0.8l1.8,3.8l3.3-0.8L90.5,79l-3.3,0.8l1.5,3.2l-3.1,0.8L84.1,80.6z M89.1,72.8l2.8-0.9l-2.4,3.6
	l-2.8,0.9l1-1.5l-2.6,0.8l-1,1.5L81.3,78l2.4-3.6l2.8-0.9l-0.8,1.2l2.6-0.8L89.1,72.8z M96.6,76.6l-1-2.8L94,78.1l1,2.8l0.7-1.8
	l1,2.6L96,83.5l1,2.8l1.6-4.3l-1-2.8L97,80.8l-1-2.6L96.6,76.6z M69.1,79.8l-2.9-0.6l-4.2,7l2.9,0.6L69.1,79.8L69.1,79.8L69.1,79.8z
	 M67.9,76.3l-1.2,2l2.9,0.6l1.2-2L67.9,76.3z M66.4,91.3l-3.5-0.8l2.2,5l3.5,0.8L66.4,91.3L66.4,91.3z M62,88.4l3.5,0.8l0.6,1.4
	l-3.5-0.8L62,88.4z M73.5,88.3l1.7-3.3l2.5,5.2l-1.7,3.3L73.5,88.3L73.5,88.3z M74.2,82.9l-1.7,3.3l0.7,1.5l1.7-3.3L74.2,82.9z
	 M130,78.3c1.6-0.4,2.6,0.9,3,2.4c0.4,1.8,0.1,3.3-1.5,3.7c-1.8,0.5-2.6-1.2-2.9-2.5S128.3,78.8,130,78.3L130,78.3L130,78.3z
	 M129.4,75.6c-3.5,0.9-5.4,3.8-4.6,7.2c0.9,3.7,3.7,5.2,7.3,4.3c3.3-0.9,5.4-3.7,4.6-7.4C136,76.9,133.5,74.6,129.4,75.6L129.4,75.6
	z M133.7,91c1.5-0.4,2.4-0.1,2.8,0.2c0.4,0.5,0.1,0.9-1.3,1.3c-1.6,0.4-2.4,0.1-2.8-0.3S132.2,91.4,133.7,91L133.7,91L133.7,91z
	 M133.2,90.3c-3.2,0.8-4.9,1.9-4.2,2.8c0.8,0.9,3.5,0.9,6.8,0.1c3.1-0.8,5-1.9,4.1-2.8C139.3,89.6,136.9,89.4,133.2,90.3L133.2,90.3
	z M141.5,82.8c-0.2-1.3-0.6-1.9-0.9-2c-0.4-0.1-0.6,0.3-0.3,1.6c0.2,1.4,0.7,1.9,0.9,2S141.7,84.1,141.5,82.8L141.5,82.8L141.5,82.8
	z M142,82.9c0.5,2.8,0.4,4.6-0.3,4.4c-0.8-0.2-1.5-2.3-2-5.1c-0.5-2.7-0.4-4.6,0.4-4.4C140.6,78,141.5,79.7,142,82.9L142,82.9z
	 M106.4,109.6c-1.9-0.7-3.3,0.8-3.9,2.6c-0.8,2.1-0.6,4,1.3,4.7c2.1,0.8,3.3-1.1,3.9-2.7C108.2,112.5,108.3,110.3,106.4,109.6
	L106.4,109.6L106.4,109.6z M107.4,106.4c4.1,1.6,6,5.3,4.6,9.3c-1.5,4.4-5.2,5.9-9.4,4.3c-3.9-1.5-6.1-5.1-4.5-9.5
	C99.3,107.1,102.7,104.7,107.4,106.4L107.4,106.4z M94,110.3c-0.6,1.5-1.3,2.2-1.9,2.2c-0.6,0.1-0.9-0.4-0.4-1.9
	c0.6-1.6,1.4-2.1,1.9-2.2S94.6,108.8,94,110.3L94,110.3L94,110.3z M95,110.2c1.2-3.3,1.2-5.4,0-5.2c-1.3,0.2-2.9,2.5-4.1,5.8
	c-1.1,3.1-1.3,5.4,0,5.2C91.9,115.9,93.6,114,95,110.2L95,110.2z M98.7,122.4c-1.5-0.7-2.4-0.7-2.8-0.4c-0.4,0.3-0.2,0.8,1.3,1.4
	c1.6,0.7,2.4,0.6,2.8,0.4S100.3,123.1,98.7,122.4L98.7,122.4L98.7,122.4z M99.3,122c3.2,1.5,4.9,2.8,4.1,3.4c-0.9,0.6-3.6,0-6.8-1.5
	c-3.1-1.4-4.9-2.8-4.1-3.4C93.2,120,95.6,120.3,99.3,122L99.3,122z M67.1,113.1l1.4-0.4c1.4-0.4,2.5-0.6,2.7,0.6
	c0.2,1-0.7,1.4-1.8,1.7l-2,0.5L67.1,113.1L67.1,113.1L67.1,113.1z M66.4,108.5l1.6-0.4c0.9-0.2,1.8-0.4,2,0.6c0,0.8-0.6,1.5-1.4,1.5
	l-1.9,0.5L66.4,108.5L66.4,108.5L66.4,108.5z M63.5,119.7l6.7-1.7c3.6-0.9,5.7-2.5,5.3-5.5c-0.1-1.4-1.3-2.5-2.7-2.4
	c1-0.8,1.5-2.1,1.3-3.3c-0.4-2.6-3-2.7-6-1.9l-6.5,1.6L63.5,119.7z M72,123.5l1.2-0.3c0.8-0.3,1.7-0.4,2.6-0.3
	c0.4,0.2-0.2,0.4-1.2,0.6l-1.7,0.4L72,123.5L72,123.5L72,123.5z M70.2,122.7L71,123l1.6-0.4c0.8-0.2,1.2-0.4,0.9-0.5
	c-0.7-0.1-1.3,0-2,0.2L70.2,122.7L70.2,122.7L70.2,122.7z M70.2,125.3L76,124c3-0.7,4.6-1.3,3.5-1.9c-1-0.3-2.1-0.3-3.1-0.1
	c0.5-0.3,0.9-0.6,0.4-0.9c-1-0.5-3.4-0.1-6,0.5l-5.6,1.3L70.2,125.3z M80.9,114.1l-0.2-1.2c-0.2-1.2-0.4-2.1-0.2-1.9
	c0.3,0.6,0.5,1.2,0.6,1.9l0.3,1.7L80.9,114.1C80.9,114.1,80.9,114.1,80.9,114.1z M80,113.3l0.4,0.4l-0.3-1.6
	c-0.1-0.5-0.2-1.1-0.5-1.5c-0.2-0.2-0.1,0.6,0.1,1.4L80,113.3C80,113.3,80,113.3,80,113.3z M82.7,119l-1.1-5.8
	c-0.6-3.1-1.2-5.3-1.8-5.8c-0.3-0.2-0.4,0.2-0.2,1.4c-0.2-0.7-0.5-1.4-0.9-2c-0.5-0.5-0.3,1.5,0.2,4.2l1.1,5.6L82.7,119z
	 M120.8,111.7l6.6,5.1l-1.7,8l4.6-1.3l0.5-4.2l3.5,3.1l4.6-1.3l-7.1-5.5l1.7-7.4l-4.6,1.3l-0.4,3.8l-3.2-2.8L120.8,111.7z
	 M139.7,103l0,5.1l-2.8-1.2l1.5,3.6l1.4,0.4l-0.1,2.7l1.5,3.6l0-5.5l2.6,1.2l-1.5-3.6l-1.2-0.3l0.1-2.4L139.7,103z M133.9,100.4
	l-4,3.1l2.8,1.2l-3.7,1.2l-1.2-0.7l-2.1,1.8l-3.7,1.2l4.2-3.4l-2.7-1.1l3.7-1.2l1,0.7l1.8-1.6L133.9,100.4z"/>
</svg>
