<?xml version="1.0" encoding="utf-8"?>
<!-- Generator: Adobe Illustrator 21.0.0, SVG Export Plug-In . SVG Version: 6.00 Build 0)  -->
<svg version="1.1" id="Шар_1" xmlns="http://www.w3.org/2000/svg" xmlns:xlink="http://www.w3.org/1999/xlink" x="0px" y="0px"
	 viewBox="0 0 93.8 79.3" style="enable-background:new 0 0 93.8 79.3;" xml:space="preserve">
<style type="text/css">
	.st0{fill:#DE2B20;}
</style>
<g>
	<path class="st0" d="M88.9,36.9h-2.4V21.1c-0.1-1.5-0.7-2.9-1.9-4c-1.1-1-2.6-1.5-4-1.4h-3.9L71.6,3.4c-0.3-0.8-1.2-1-1.9-0.9
		L29.5,15.7l-22.7,0c-3.1-0.1-5.8,2.3-6,5.5l0,50.4c0.1,3,2.7,5.5,5.7,5.5h74c0.1,0,0.1,0,0.2,0c3.1,0,5.6-2.4,5.8-5.5V55.8h2.4
		c2,0,3.5-1.5,3.5-3.5V40.4C92.4,38.5,90.8,36.9,88.9,36.9z M39.2,15.7l30.2-9.9l4,9.9H39.2z M62.9,40.4c0-0.3,0.2-0.5,0.5-0.5h25.5
		c0.3,0,0.5,0.2,0.5,0.5v11.9c0,0.3-0.2,0.5-0.5,0.5H63.4c-0.3,0-0.5-0.2-0.5-0.5V40.4z M83.4,36.9h-20c-2,0-3.5,1.5-3.5,3.5v11.9
		c0,2,1.5,3.5,3.5,3.5h20.1v15.7c-0.1,1.5-1.3,2.6-2.9,2.6l-73.8,0C5.3,74.2,4,73,3.9,71.6l0-50.3c0.1-1.5,1.3-2.6,2.8-2.6h73.8
		c0.9,0,1.5,0.2,1.9,0.7c0.5,0.5,0.9,1.2,1,1.8V36.9z"/>
	<path class="st0" d="M20.1,24.2h-3c-0.6,0-1,0.4-1,1s0.4,1,1,1h3c0.6,0,1-0.4,1-1S20.7,24.2,20.1,24.2z"/>
	<path class="st0" d="M34.9,24.2h-3c-0.6,0-1,0.4-1,1s0.4,1,1,1h3c0.6,0,1-0.4,1-1S35.4,24.2,34.9,24.2z"/>
	<path class="st0" d="M49.6,24.2h-3c-0.6,0-1,0.4-1,1s0.4,1,1,1h3c0.6,0,1-0.4,1-1S50.2,24.2,49.6,24.2z"/>
	<path class="st0" d="M61.4,26.2h3c0.6,0,1-0.4,1-1s-0.4-1-1-1h-3c-0.6,0-1,0.4-1,1S60.8,26.2,61.4,26.2z"/>
	<path class="st0" d="M26,66.6h-3c-0.6,0-1,0.4-1,1s0.4,1,1,1h3c0.6,0,1-0.4,1-1S26.6,66.6,26,66.6z"/>
	<path class="st0" d="M40.8,66.6h-3c-0.6,0-1,0.4-1,1s0.4,1,1,1h3c0.6,0,1-0.4,1-1S41.3,66.6,40.8,66.6z"/>
	<path class="st0" d="M55.5,66.6h-2.9c-0.6,0-1,0.4-1,1s0.4,1,1,1h2.9c0.6,0,1-0.4,1-1S56.1,66.6,55.5,66.6z"/>
	<path class="st0" d="M67.3,68.6h2.9c0.6,0,1-0.4,1-1s-0.4-1-1-1h-2.9c-0.6,0-1,0.4-1,1S66.7,68.6,67.3,68.6z"/>
	<path class="st0" d="M71.8,44.1L71.8,44.1c-1.4-0.1-2.5,0.9-2.6,2.2c0,1.2,0.9,2.3,2.1,2.4c0.1,0,0.2,0,0.2,0
		c1.2,0,2.2-0.9,2.3-2.1C74,45.3,73.1,44.2,71.8,44.1z M71.5,46.7c-0.2,0-0.3-0.2-0.3-0.3c0-0.2,0.2-0.4,0.4-0.4
		c0.2,0,0.3,0.2,0.3,0.4C71.9,46.6,71.7,46.7,71.5,46.7z"/>
</g>
</svg>
