<?xml version="1.0" encoding="utf-8"?>
<!-- Generator: Adobe Illustrator 21.0.0, SVG Export Plug-In . SVG Version: 6.00 Build 0)  -->
<svg version="1.1" id="Шар_1" xmlns="http://www.w3.org/2000/svg" xmlns:xlink="http://www.w3.org/1999/xlink" x="0px" y="0px"
	 viewBox="0 0 64 64" style="enable-background:new 0 0 64 64;" xml:space="preserve">
<style type="text/css">
	.st0{fill:#DE2B20;}
</style>
<title>Telephone Operator</title>
<desc>A line styled icon from Orion Icon Library.</desc>
<g>
	<path class="st0" d="M46,34c-0.6,0-1-0.4-1-1c0-0.6,0.4-1,1-1h5c1-0.1,1.9-1,2-2.1l0-6.9c-0.1-1-1-1.9-2.1-2L46,21
		c-0.6,0-1-0.4-1-1s0.4-1,1-1h5c2.2,0.1,3.9,1.8,4,3.9l0,7.1c-0.1,2.2-1.8,3.9-3.9,4L46,34z M18.2,34H12c-2.2-0.1-3.9-1.8-4-3.9
		L8,23c0.1-2.2,1.8-3.9,3.9-4l5.1,0c0.6,0,1,0.4,1,1s-0.4,1-1,1h-5c-1,0.1-1.9,1-2,2.1l0,6.9c0.1,1,1,1.9,2.1,2l6.1,0
		c0.6,0,1,0.4,1,1C19.2,33.6,18.8,34,18.2,34z"/>
</g>
<g>
	<path class="st0" d="M25.4,43.3c-0.2,0-0.4,0-0.5-0.1C19.5,39.8,16,33.1,16,26V16C16,4.9,24.3,1,31.4,1C39.2,1,47,5.6,47,16v16
		c0,4.4-4.4,8-8,8c-0.6,0-1-0.4-1-1s0.4-1,1-1c2.4,0,6-2.5,6-6V16c0-9.6-7.3-13-13.6-13C24.9,3,18,6.4,18,16v10
		c0,6.4,3.1,12.5,7.9,15.4c0.5,0.3,0.6,0.9,0.3,1.4C26.1,43.1,25.7,43.3,25.4,43.3z"/>
</g>
<g>
	<path class="st0" d="M61,63H2c-0.3,0-0.6-0.1-0.8-0.4C1,62.4,1,62.1,1,61.8C2.3,55.7,7.1,51.1,13.2,50c9.8-1.8,9.8-4.2,9.8-5.8
		l0-2.9c0-0.6,0.4-1,1-1s1,0.4,1,1l0,2.9c0,2.9-0.8,5.9-11.4,7.8c-4.8,0.8-8.8,4.4-10.3,9h56.4c-1.6-4.6-5.6-8.2-10.5-9
		C38.8,50,38,47.1,38,44.2V39c0-0.6,0.4-1,1-1s1,0.4,1,1v5.2c0,1.6,0,4.1,9.6,5.9c6,1.1,11,5.8,12.4,11.8c0.1,0.3,0,0.6-0.2,0.8
		C61.6,62.9,61.3,63,61,63z"/>
</g>
<g>
	<path class="st0" d="M36,43h-2c-2.2,0-4-1.8-4-4s1.8-4,4-4h2c2.2,0,4,1.8,4,4S38.2,43,36,43z M34,37c-1.1,0-2,0.9-2,2s0.9,2,2,2h2
		c1.1,0,2-0.9,2-2s-0.9-2-2-2H34z"/>
</g>
<g>
	<path class="st0" d="M31.4,62C31.4,62,31.4,62,31.4,62c-0.3,0-0.6-0.1-0.8-0.4l-10-12.5c-0.3-0.4-0.3-1.1,0.2-1.4
		c0.4-0.3,1.1-0.3,1.4,0.2l9.2,11.5l9.4-11.5c0.3-0.4,1-0.5,1.4-0.1c0.4,0.3,0.5,1,0.1,1.4L32.2,61.6C32,61.9,31.7,62,31.4,62z
		 M17,19c-0.6,0-1-0.4-1-1s0.4-1,1-1c6.2,0,9-2.2,11.6-4.4C30.8,10.8,33,9,37,9c8.8,0,10,7.8,10,7.9c0.1,0.5-0.3,1.1-0.8,1.1
		c-0.5,0.1-1.1-0.3-1.1-0.8c0-0.2-1-6.1-8-6.1c-3.2,0-5,1.4-7.1,3.2C27.1,16.4,24,19,17,19z"/>
</g>
</svg>
