<svg id="Шар_1" xmlns="http://www.w3.org/2000/svg" viewBox="0 0 95 64"><style>.st0{fill:#de2b20}</style><path class="st0" d="M68.4 48.7c-.6 0-1-.4-1-1v-4.9L65 40.4c-.1-.1-.1-.2-.2-.3l-3.7-7.4h-8.7c-.6 0-1-.4-1-1s.4-1 1-1h9.3c.4 0 .7.2.9.6l3.9 7.9 2.6 2.6c.2.2.3.4.3.7v5.3c0 .5-.4.9-1 .9z"/><path class="st0" d="M52.4 48.7c-.6 0-1-.4-1-1V24.8H29.5v22.9c0 .6-.4 1-1 1s-1-.4-1-1V23.8c0-.6.4-1 1-1h23.9c.6 0 1 .4 1 1v23.9c0 .6-.4 1-1 1z"/><path class="st0" d="M36.5 58c-2.8 0-5-2.2-5-5s2.2-5 5-5 5 2.2 5 5-2.2 5-5 5zm0-8c-1.7 0-3 1.3-3 3s1.3 3 3 3 3-1.3 3-3-1.3-3-3-3zm23.9 8c-2.8 0-5-2.2-5-5s2.2-5 5-5 5 2.2 5 5-2.2 5-5 5zm0-8c-1.7 0-3 1.3-3 3s1.3 3 3 3 3-1.3 3-3-1.3-3-3-3z"/><path class="st0" d="M68.4 54h-4c-.6 0-1-.4-1-1s.4-1 1-1h3v-3.3H29.5V52h3c.6 0 1 .4 1 1s-.4 1-1 1h-4c-.6 0-1-.4-1-1v-5.3c0-.6.4-1 1-1h39.9c.6 0 1 .4 1 1V53c0 .6-.4 1-1 1zm-12 0h-16c-.6 0-1-.4-1-1s.4-1 1-1h16c.6 0 1 .4 1 1s-.4 1-1 1zM24.3 29.9c0 .8-.7 1.5-1.5 1.5H10c-.8 0-1.5-.7-1.5-1.5s.7-1.5 1.5-1.5h12.8c.8.1 1.5.7 1.5 1.5zm0 7.8c0 .8-.7 1.5-1.5 1.5h-9.9c-.8 0-1.5-.7-1.5-1.5s.7-1.5 1.5-1.5h9.9c.8.1 1.5.7 1.5 1.5zm0 7.9c0 .8-.7 1.5-1.5 1.5h-8c-.8 0-1.5-.7-1.5-1.5s.7-1.5 1.5-1.5h8c.8 0 1.5.6 1.5 1.5z"/></svg>