<svg xmlns="http://www.w3.org/2000/svg" viewBox="0 0 64 64"><path d="M58 20.7H23.4c-1.4 0-2.5 1.1-2.5 2.5v23c0 1.4 1.1 2.5 2.5 2.5H58c1.4 0 2.5-1.1 2.5-2.5v-23c0-1.3-1.1-2.5-2.5-2.5zm-3.8 3l-13.6 9.2-13.9-9.2h27.5zm-30.3 22V25.3l16 10.6c.2.1.5.2.8.2s.6-.1.8-.3l16-10.9v20.7l-33.6.1zm-5.6-18.8c0 .8-.7 1.5-1.5 1.5H4c-.8 0-1.5-.7-1.5-1.5s.7-1.5 1.5-1.5h12.8c.8.1 1.5.7 1.5 1.5zm0 7.8c0 .8-.7 1.5-1.5 1.5H6.9c-.8 0-1.5-.7-1.5-1.5s.7-1.5 1.5-1.5h9.9c.8.1 1.5.7 1.5 1.5zm0 7.9c0 .8-.7 1.5-1.5 1.5h-8c-.8 0-1.5-.7-1.5-1.5s.7-1.5 1.5-1.5h8c.8 0 1.5.6 1.5 1.5z" fill="#de2b20"/></svg>