<svg id="Шар_1" xmlns="http://www.w3.org/2000/svg" viewBox="0 0 64 64"><style>.st0{fill:#de2b20}</style><path class="st0" d="M54.2 41.1c-1.2 0-2.5-.5-3.5-1.4l-5.4-5.4c-.4-.4-.4-1 0-1.4s1-.4 1.4 0l5.4 5.4c1.2 1.1 3.1 1.1 4.3-.1 1.1-1.2 1.1-3 0-4.2l-1.3-1.3L43 20.6c-2.2-2.2-4.3-2.1-6.6.2l-.8.8c-2 1.9-5.2 1.9-7.1-.1-1.9-1.9-1.9-5 0-6.9l2.8-2.8C34.6 8.5 36.6 7 39.9 7h4.3c.3 0 .5.1.7.3l17.8 17.8c.4.4.4 1 0 1.4L57.2 32l.6.6c1.9 2 1.9 5 0 7-1 1-2.3 1.5-3.6 1.5zM39.9 17c1.6 0 3.1.7 4.6 2.2l11.4 11.4 4.8-4.8L43.8 9h-3.9c-2.3 0-3.9.9-7.2 4.2L29.9 16c-1.1 1.1-1.1 3 0 4.1 1.2 1.2 3.1 1.2 4.3.1l.8-.8c1.6-1.6 3.2-2.4 4.9-2.4z"/><path class="st0" d="M50 48.3c-1.3 0-2.6-.5-3.6-1.5l-6.1-6.3c-.4-.4-.4-1 0-1.4.4-.4 1-.4 1.4 0l6.1 6.3c1.1 1.1 3.1 1.2 4.3 0 .6-.6.9-1.3.9-2.1s-.3-1.6-.9-2.1l-6.8-6.8c-.4-.4-.4-1 0-1.4s1-.4 1.4 0l6.8 6.8c1 1 1.5 2.2 1.5 3.6s-.5 2.6-1.5 3.6c-1 .8-2.2 1.3-3.5 1.3z"/><path class="st0" d="M42.9 52.3c-1.2 0-2.5-.4-3.4-1.3l-2.8-2.8c-.4-.4-.4-1 0-1.4s1-.4 1.4 0l2.8 2.8c1.2 1 3 1 4.1 0 1.2-1.2 1.3-3.1.2-4.3l-4.8-4.8c-.4-.4-.4-1 0-1.4s1-.4 1.4 0l4.8 4.8c1.9 2 1.8 5.1-.2 7.1-1 .9-2.3 1.3-3.5 1.3z"/><path class="st0" d="M36.2 57c-1.3 0-2.5-.5-3.5-1.4l-1.4-1.5c-.4-.4-.4-1 0-1.4.4-.4 1-.4 1.4 0l1.4 1.5c1.1 1.1 3 1.1 4.1 0 1.2-1.2 1.2-3.1.1-4.3l-1.4-1.4c-.4-.4-.4-1 0-1.4s1-.4 1.4 0l1.4 1.4c1.9 2 1.9 5.2-.1 7.1-.9.9-2.1 1.4-3.4 1.4zM8.4 33c-.3 0-.5-.1-.7-.3l-6.4-6.4c-.4-.4-.4-1 0-1.4l16-16c.2-.2.5-.3.7-.3.3 0 .5.1.7.4.6.7 2.1 2.1 3.1 2.1 1.6 0 2-.4 3-1.4l.3-.3c2.6-2.6 6.5-2.3 9.4.6.4.4.4 1 0 1.4s-1 .4-1.4 0c-2.1-2.2-4.7-2.4-6.5-.6l-.3.3c-1.1 1.2-2 2-4.4 2-1.5 0-3-1.2-3.9-2.1L3.4 25.6l5.7 5.7c.4.4.4 1 0 1.4-.2.2-.4.3-.7.3z"/><path class="st0" d="M10 41.1c-1.3 0-2.5-.5-3.5-1.4-2-2-2-5.1-.1-7.1l3-3c2.1-1.9 5.3-1.8 7.1.2 1.9 2.1 1.8 5.2-.2 7.1l-2.9 2.8c-1 1-2.2 1.4-3.4 1.4zm2.9-10.9c-.7 0-1.5.3-2.1.8l-3 3c-1.1 1.2-1.1 3.1.1 4.3 1.1 1.1 3 1.1 4.1 0l2.9-2.8c1.2-1.1 1.3-3 .1-4.3-.5-.7-1.3-1-2.1-1z"/><path class="st0" d="M21.3 52.4c-1.3 0-2.5-.5-3.5-1.4-.9-.9-1.4-2.1-1.5-3.3-1.8.8-4 .5-5.5-1-2-2-2-5.1-.1-7.1l4.2-4.2c2-2 5.1-2 7.1 0 1 1 1.5 2.2 1.5 3.6 0 .3 0 .5-.1.8 1.4-.2 2.9.3 4 1.4 2 2 2.1 5.1.2 7.1L24.7 51c-1 1-2.2 1.4-3.4 1.4zm-2.4-6.9c-.9 1.2-.9 3 .3 4.1 1.1 1.1 3 1.1 4.1 0l2.9-2.8c1.1-1.2 1-3.1-.2-4.3-1-1-2.5-1.1-3.7-.3l-.3.3-3.1 3zm8 2zm-8.4-11.6c-.8 0-1.5.3-2.1.9L12.1 41c-1.1 1.2-1.1 3.1.1 4.3 1.1 1.1 3 1.1 4.1 0l1.2-1.1c.1-.1.1-.2.2-.2l2.8-2.8c.1-.1.3-.2.4-.3.4-.5.6-1.2.6-1.8 0-.8-.3-1.6-.9-2.1-.6-.8-1.4-1.1-2.1-1.1z"/><path class="st0" d="M28.1 56.9c-1.3 0-2.5-.5-3.5-1.4-2-2-2-5.1-.1-7.1l1.4-1.4c1-1 2.2-1.5 3.6-1.5S32 46 33 47s1.5 2.2 1.5 3.6-.5 2.5-1.5 3.5l-1.4 1.4c-1 .9-2.3 1.4-3.5 1.4zm1.4-9.4c-.8 0-1.6.3-2.1.9L26 49.8c-1.1 1.2-1.1 3.1.1 4.3 1.1 1.1 3 1.1 4.2 0l1.4-1.4c.6-.6.9-1.3.9-2.1s-.3-1.6-.9-2.1c-.7-.7-1.5-1-2.2-1zm2.8 5.9z"/></svg>