<svg xmlns="http://www.w3.org/2000/svg" width="200" height="200"><path d="M88.686 99.314a2 2 0 0 1 0 2.828l-4.243 4.242a2 2 0 0 1-2.828 0 2 2 0 0 1 0-2.828l4.243-4.242a2 2 0 0 1 2.828 0zm29.7-29.7a2 2 0 0 1 0 2.828l-4.243 4.243a2 2 0 0 1-2.828 0 2 2 0 0 1 0-2.828l4.243-4.243a2 2 0 0 1 2.827 0zM84 88a2 2 0 0 1-2 2h-6a2 2 0 0 1-2-2 2 2 0 0 1 2-2h6a2 2 0 0 1 2 2zm42 0a2 2 0 0 1-2 2h-6a2 2 0 0 1-2-2 2 2 0 0 1 2-2h6a2 2 0 0 1 2 2zM88.686 76.686a2 2 0 0 1-2.828 0l-4.243-4.243a2 2 0 0 1 0-2.828 2 2 0 0 1 2.828 0l4.243 4.243a2 2 0 0 1 0 2.828zm29.7 29.7a2 2 0 0 1-2.828 0l-4.243-4.242a2 2 0 0 1 0-2.828 2 2 0 0 1 2.828 0l4.243 4.242a2 2 0 0 1-.001 2.826zM100 72a2 2 0 0 1-2-2v-6a2 2 0 0 1 2-2 2 2 0 0 1 2 2v6a2 2 0 0 1-2 2zm0 42a2 2 0 0 1-2-2v-6a2 2 0 0 1 2-2 2 2 0 0 1 2 2v6a2 2 0 0 1-2 2z" fill="#dcdcdc" fill-rule="evenodd"/></svg>