<svg xmlns="http://www.w3.org/2000/svg" viewBox="0 0 200 200"><path d="M89.7 14.7l-75.5 72c-6.7 6.4-7 17-.6 23.7l.2.2L87 184.9c6.7 6.7 17.4 6.8 24.3.4l75.5-71.9c6.7-6.4 7-17 .6-23.7l-.2-.2L114 15.1c-6.7-6.7-17.4-6.8-24.3-.4z" fill="#fff"/><path d="M93.9 44.1L44.4 91.3c-4.4 4.2-4.6 11.1-.4 15.5l.1.1 48 48.7c4.4 4.4 11.4 4.5 15.9.3l49.5-47.2c4.4-4.2 4.6-11.1.4-15.5l-.1-.1-48-48.7c-4.3-4.4-11.4-4.5-15.9-.3zM73.4 98.6c-.1 0-.3 0-.4-.1l-10-2.9c-.2 0-.3-.1-.5-.2s-.3-.2-.5-.3c-.1-.1-.3-.2-.4-.3l-.3-.3-4.9-7.7c-.1-.1-.1-.2-.1-.3v-.1l.1-.1h.4l10.9 2.6c.2.1.4.1.6.2l.6.3c.2.1.3.3.5.4.1.1.2.3.3.4l4 8c0 .1.1.1.1.2 0 0 0 .1-.1.1-.2 0-.2.1-.3.1zM57.1 85.9c-.8-.2-.9-.6-.4-1.3l6.2-8.9c.4-.5 1.1-.8 1.7-.7l10.5 1.7c.6.1.9.4.8.9l-6.1 10.1c-.1.2-.2.3-.4.4-.2.1-.3.2-.5.3-.2.1-.4.1-.6.2h-.5l-10.7-2.7zm23.5 1.9l-.6-1.2c0 .1 0 .2.1.3v.5c0 .2-.1.4-.1.5 0 .2-.1.3-.2.5l-5 9.3c-.1.1-.2.3-.3.4l-.2.2h-.2c-.1 0-.1-.1-.1-.2l-4-8c-.1-.2-.1-.3-.1-.5V89c0-.2.1-.4.1-.6.1-.2.1-.4.2-.6l6-9.9.3-.3c.1 0 .1-.1.2-.1s.1 0 .2.1.1.2.2.3l.6 1.8 3.8-4.8.2-.2c.1-.1.2-.2.4-.2.1-.1.3-.2.5-.2.2-.1.3-.1.5-.2l10.6-3.4c.2-.1.3-.1.5-.1h.4L92.1 75c-.1.1-.1.2-.2.2-.1.1-.3.2-.4.3l-.6.3c-.2.1-.4.2-.6.2l-12.1 3.7c-.2.1-.3.1-.5.1h-.2l.3.9c.1-.1.2-.3.4-.4l.1-.1c.1-.1.2-.1.3-.2l12-3.7c.2-.1.4-.1.5-.1.2 0 .3.1.5.1.1.1.3.2.3.3.1.1.2.3.2.5l2.5 5.9 2.4 5.8c.1.2.1.3.1.5s-.1.3-.1.4c-.1.1-.2.3-.3.4-.1.1-.3.2-.5.2l-11.8 2.9h-.6c-.2 0-.4-.1-.5-.1-.2-.1-.3-.2-.4-.3-.1-.1-.2-.3-.3-.4l-2-4.6zm30.5 8h-.3c-.2 0-.3-.1-.5-.1s-.4-.1-.5-.2-.4-.1-.5-.2l-10.7-4.7c-.2-.1-.3-.2-.5-.2-.1-.1-.2-.2 0-.2l4.3-1.2h.3c.2 0 .4 0 .5.1.2 0 .4.1.6.2s.4.2.7.3l12.1 5.5c.2.1.3.2.5.2l.1.1-6.1.4zm-2.7-21.4l-1 2.7-3.9 9.9-.3.6c-.1.2-.2.4-.3.5-.1.1-.2.3-.3.4l-.2.2s-4.1 1.1-4.4 1.2-.3-.1-.3-.2v-.4l-.1-.1c-.1-.1-.2-.3-.2-.4l-4.7-11.6c-.1-.2-.2-.4-.2-.6-.1-.2-.1-.4-.1-.6v-.5c0-.1 0-.2.1-.3l2.2-4.4c.1.1.1.2.2.3.1.1.2.3.2.5l4 10.2c.1.2.1.3.2.5 0 .2.1.3.1.5v.7L98.2 88l3.1-7.7.9-2.3c.1-.2.2-.3.2-.5.1-.2.2-.3.3-.5.1-.1.2-.2.3-.4l.2-.2 5.2-2.9c.2-.1.2.1.1.3.1.2 0 .4-.1.6zM130 95.2h-.4c-.1 0-.2 0-.3-.1l-5.2-3.1-.1-.1.1-.1c.1-.1.2-.1.3-.2.2-.1.4-.1.5-.2l13.4-3.3c.2-.1.5-.1.7-.1h.6c.2 0 .3 0 .5.1.1 0 .2.1.2.1l3.4 3.6-.1.1c-.1.1-.2.1-.4.2s-.3.1-.5.2L131 95.1c-.2 0-.4.1-.6.1h-.4zm10.7-7.2c-.1-.1-.1-.2-.2-.3-.1-.2-.2-.3-.2-.5-.1-.2-.1-.4-.2-.6s-.1-.5-.2-.7l-2.4-12.7c0-.2-.1-.3-.1-.5l3.5 5.1c.1.1.1.2.2.3.1.1.1.3.2.4s.1.3.2.5.1.4.1.5l2.3 11.1c0 .2.1.4.1.5v.2l-3.3-3.3zm-1.1-2v.6c0 .2-.1.4-.2.6-.2.4-.6.6-1 .7L125 91.2h-.6c-.2 0-.3-.1-.5-.2-.1-.1-.3-.2-.4-.4-.1-.2-.2-.3-.2-.5v-.3l-1.6-12.1v-.5c0-.2.1-.3.2-.5s.2-.3.4-.4c.2-.1.3-.2.5-.3l12.6-3.6c.2 0 .3-.1.5-.1h.1c.2 0 .3.1.5.1.1.1.3.2.4.3.1.1.2.3.2.5l1.4 7.3 1.1 5.5zm-71.8 41.1h-.5c-.1 0-.2 0-.3-.1l-6-3.6s-.1 0-.1-.1c0 0 0-.1.1-.1.1-.1.2-.2.3-.2.2-.1.4-.2.6-.2l15.7-3.9c.3-.1.5-.1.8-.1h.7c.2 0 .4 0 .6.1.1 0 .2.1.3.1l4 4.2c0 .1-.1.1-.1.1-.1.1-.3.2-.4.2-.2.1-.4.1-.6.2l-13.6 3.2c-.2.1-.4.1-.7.1-.3.1-.6.1-.8.1zm8.3-25.5l1.6 8.5 1.2 6.3v.7c-.1.2-.1.5-.3.6-.1.2-.3.4-.5.5-.2.1-.4.3-.7.3l-15.7 3.9c-.1 0-.3.1-.4.1h-.2c-.2 0-.4-.1-.6-.2-.2-.1-.3-.3-.4-.4-.1-.2-.2-.4-.2-.6v-.3l-1.8-14.1v-.6l.3-.6c.1-.2.3-.3.5-.5l.6-.3 14.7-4.2c.2-.1.4-.1.5-.1h.1c.2 0 .4.1.6.2.2.1.3.2.4.4.2 0 .3.2.3.4zm4.2 17.1c-.1-.1-.2-.2-.2-.3l-.3-.6c-.1-.2-.2-.5-.2-.7s-.1-.5-.2-.8l-2.8-14.8c0-.2-.1-.4-.1-.6l4.1 5.9c.1.1.1.2.2.3.1.2.1.3.2.5s.1.4.2.6.1.4.2.6l2.6 13c0 .2.1.4.1.6v.2l-3.8-3.9zm18.9-17.1l-1.2 3.1-4.5 11.5c-.1.2-.2.5-.3.7-.1.2-.2.4-.4.6-.1.2-.2.3-.4.4-.1.1-.2.1-.3.2 0 0-4.8 1.3-5.1 1.4s-.3-.1-.3-.2 0-.2.1-.2c.1-.2.1-.4.2-.6l4.1-10 1.1-2.7.3-.6c.1-.2.2-.4.3-.5.1-.1.2-.3.3-.4.1-.1.2-.2.3-.2l6-3.4c.3-.1.2.1.1.3-.2.2-.2.4-.3.6zm3 25h-.3c-.2 0-.4-.1-.5-.1-.2-.1-.4-.1-.6-.2s-.4-.2-.6-.2l-12.4-5.5-.6-.3c-.1-.1-.2-.2 0-.3l5.1-1.4h.4c.2 0 .4.1.6.1.2.1.5.1.7.2s.5.2.8.3l14.1 6.4c.2.1.4.2.5.3.1 0 .1.1.2.1l-7.4.6c.1 0 .1 0 0 0zm13.7-17.1c0 .2 0 .4-.1.6l-.1.4-4.7 13.7-.3.6c-.1.2-.3.3-.5.4-.2.1-.4.1-.6.1-.2 0-.4 0-.6-.1l-14.1-6.4c-.2-.1-.4-.2-.6-.4-.2-.2-.3-.4-.4-.6-.1-.2-.1-.4-.1-.6v-.1c0-.2 0-.5.1-.7l5.7-14.6c.1-.2.2-.4.4-.5.1-.1.3-.2.5-.3.2-.1.3-.1.5-.1h.1c.2 0 .4.1.6.2L115 108c.2.1.4.2.5.4.2.2.4.6.4 1.1zm19.6-3.3c.2.2.3.4.4.6l1.6 3.9 4.2 10.4c.1.2.1.4.1.6 0 .2-.1.4-.2.5-.1.2-.2.3-.4.4l-.6.3-14.5 3.6c-.1 0-.3.1-.5.1h-.2c-.2 0-.4-.1-.6-.2-.2-.1-.4-.2-.5-.4-.2-.1-.3-.3-.4-.5l-2.7-5.8-3.6-7.6c-.1-.2-.1-.4-.2-.6 0-.2 0-.4.1-.6.1-.2.2-.3.3-.5.2-.1.3-.2.5-.3l14.9-4.5c.2-.1.4-.1.6-.1h.1c.8.1 1.3.3 1.6.7zm7 15.5c-.1-.1-.2-.2-.2-.3-.1-.2-.2-.4-.3-.5l-5.8-14.3c-.1-.2-.2-.5-.3-.8-.1-.2-.1-.5-.2-.7v-.6c0-.1 0-.2.1-.4l2.8-5.5.1.1c.1.1.2.2.2.3l.3.6 4.9 12.6c.1.2.1.4.2.6.1.2.1.4.1.6 0 .2.1.4.1.5v.4l-1.9 7.2-.1.2zM118 109.8h-.1.1l4.6-5.9c.1-.1.2-.2.3-.2.2-.1.3-.2.5-.3l.6-.3c.2-.1.4-.2.6-.2l12.3-3.9c.2-.1.4-.1.6-.2h.5l-2.7 5.2-.3.3c-.2.1-.3.3-.5.4-.2.1-.4.2-.7.3-.2.1-.5.2-.8.3l-14.1 4.5c-.2.1-.4.1-.6.1-.1-.1-.2-.1-.3-.1zM98.2 52.7L73.5 76.2 66.2 75l30.3-28.9c3-2.9 7.8-2.8 10.7.2l26.1 26.5-6.5 1.9-21.6-21.9c-1.8-2-5-2-7-.1zm-41.1 31l-.8 1.1c-.4.6-.4 1.4 0 2l2.3 3.6-5.6 5.3c-2 1.9-2 5-.2 7l.1.1 5.2 5.3.2 1.7 1 8-13.1-13.3c-2.9-2.9-2.8-7.6.1-10.5l.1-.1 10.7-10.2zm11.6 43.6h.2l6.6-1.6 21.2 21.5c2 2 5.1 2 7.1.1l21.5-20.5c.4.1.8.1 1.2 0l10.2-2.5-31.2 29.7c-3 2.8-7.8 2.8-10.7-.2l-26.1-26.5zm75.4-10l.5-1.9c.3-1 .2-2.1-.2-3.1l-1-2.7 5.6-5.4c2-1.9 2-5 .2-7l-.1-.1L144 92l.1-.1c.1-.2.2-.5.1-.7l-1.9-9.4 13.6 13.8c2.9 2.9 2.8 7.6-.1 10.4l-.1.1-11.6 11.2zm-22.3-37.6l.5 3.5-3.7 10.7c-.1.2-.2.4-.3.5-.1.1-.3.2-.4.3-.2.1-.3.1-.5.1s-.3 0-.5-.1l-12.1-5.5c-.2-.1-.4-.2-.5-.4-.1-.2-.3-.3-.3-.5-.1-.2-.1-.3-.1-.5v-.1c0-.2 0-.4.1-.6l4.9-12.6c.1-.2.2-.3.3-.5.1-.1.3-.2.4-.3.1 0 .3-.1.4-.1h.1c.2 0 .4.1.5.2l11.2 5.9zm-7.9-.9l-.5 1.1-.8-.3c-2.9-1.3-5-.1-5.8 1.9-.9 2.1-.2 4.2 2.7 5.5l.8.3-.6 1.4 3.3 1.4.6-1.4.8.3c2.9 1.2 4.9.3 5.8-1.9.9-2 .2-4.2-2.7-5.5l-.8-.3.5-1.1-3.3-1.4zm-2.6 6.2l-.6-.3c-.7-.4-1-1.3-.7-2s1.3-1 2-.7l.4.2-1.1 2.8zm4.5-1.3l.4.2c.7.2 1.2.8 1 1.6 0 .1-.1.3-.2.4-.2.7-.8 1.1-1.5 1-.1 0-.2-.1-.3-.1l-.6-.3 1.2-2.8zm-10.4-3.4l-.4.1.2-.6c.9-2.4.7-3.3 0-3.1-.8.2-1.7 1.4-2.6 3.7l-.2.7-.5.1-1 2.7.5-.1-.2.7c-.9 2.3-.7 3.3.1 3.1.7-.2 1.7-1.4 2.6-3.7l.1-.9.4-.1 1-2.6zm-2.2.5l.2-.5c.1-.5.4-.9.9-1.1.3-.1.4.2.1 1l-.1.4-1.1.2zm0 2.4l-.1.4c-.1.5-.4 1-.9 1.3-.3.1-.4-.2-.1-.9l.2-.5.9-.3zm6.8 9.6l-.4.1.6.3c2.3 1 2.8 1.6 2.1 1.8-.7.2-2.2-.2-4.4-1.2l-.6-.3-.4.1-2.5-1.1.4-.1-.6-.3c-2.2-1-2.8-1.6-2.1-1.7.6-.2 2.2.2 4.4 1.2l.6.3.4-.1 2.5 1zm-1.9.5l.5.2c.4.2.9.3 1.4.3.3-.1.1-.2-.7-.6l-.3-.2-.9.3zm-1.7-1.4l-.3-.2c-.5-.3-1-.4-1.5-.4-.3.1-.1.2.5.5l.5.2.8-.1zM84.1 80.6l-3.3.8 4.2 9.2 3.3-.8-1.7-3.8 3.1-.8 1.8 3.8 3.3-.8-4.3-9.2-3.3.8 1.5 3.2-3.1.8-1.5-3.2zm5-7.8l2.8-.9-2.4 3.6-2.8.9 1-1.5-2.6.8-1 1.5-2.8.8 2.4-3.6 2.8-.9-.8 1.2 2.6-.8.8-1.1zm7.5 3.8l-1-2.8-1.6 4.3 1 2.8.7-1.8 1 2.6-.7 1.8 1 2.8 1.6-4.3-1-2.8-.6 1.6-1-2.6.6-1.6zm-27.5 3.2l-2.9-.6-4.2 7 2.9.6 4.2-7zm-1.2-3.5l-1.2 2 2.9.6 1.2-2-2.9-.6zm-1.5 15l-3.5-.8 2.2 5 3.5.8-2.2-5zM62 88.4l3.5.8.6 1.4-3.5-.8-.6-1.4zm11.5-.1l1.7-3.3 2.5 5.2-1.7 3.3-2.5-5.2zm.7-5.4l-1.7 3.3.7 1.5 1.7-3.3-.7-1.5zm55.8-4.6c1.6-.4 2.6.9 3 2.4.4 1.8.1 3.3-1.5 3.7-1.8.5-2.6-1.2-2.9-2.5s-.3-3.1 1.4-3.6zm-.6-2.7c-3.5.9-5.4 3.8-4.6 7.2.9 3.7 3.7 5.2 7.3 4.3 3.3-.9 5.4-3.7 4.6-7.4-.7-2.8-3.2-5.1-7.3-4.1zm4.3 15.4c1.5-.4 2.4-.1 2.8.2.4.5.1.9-1.3 1.3-1.6.4-2.4.1-2.8-.3s-.2-.8 1.3-1.2zm-.5-.7c-3.2.8-4.9 1.9-4.2 2.8.8.9 3.5.9 6.8.1 3.1-.8 5-1.9 4.1-2.8-.6-.8-3-1-6.7-.1zm8.3-7.5c-.2-1.3-.6-1.9-.9-2-.4-.1-.6.3-.3 1.6.2 1.4.7 1.9.9 2s.5-.3.3-1.6zm.5.1c.5 2.8.4 4.6-.3 4.4-.8-.2-1.5-2.3-2-5.1-.5-2.7-.4-4.6.4-4.4.5.2 1.4 1.9 1.9 5.1zm-35.6 26.7c-1.9-.7-3.3.8-3.9 2.6-.8 2.1-.6 4 1.3 4.7 2.1.8 3.3-1.1 3.9-2.7.5-1.7.6-3.9-1.3-4.6zm1-3.2c4.1 1.6 6 5.3 4.6 9.3-1.5 4.4-5.2 5.9-9.4 4.3-3.9-1.5-6.1-5.1-4.5-9.5 1.2-3.4 4.6-5.8 9.3-4.1zM94 110.3c-.6 1.5-1.3 2.2-1.9 2.2-.6.1-.9-.4-.4-1.9.6-1.6 1.4-2.1 1.9-2.2s1 .4.4 1.9zm1-.1c1.2-3.3 1.2-5.4 0-5.2-1.3.2-2.9 2.5-4.1 5.8-1.1 3.1-1.3 5.4 0 5.2 1-.1 2.7-2 4.1-5.8zm3.7 12.2c-1.5-.7-2.4-.7-2.8-.4-.4.3-.2.8 1.3 1.4 1.6.7 2.4.6 2.8.4s.3-.7-1.3-1.4zm.6-.4c3.2 1.5 4.9 2.8 4.1 3.4-.9.6-3.6 0-6.8-1.5-3.1-1.4-4.9-2.8-4.1-3.4.7-.5 3.1-.2 6.8 1.5zm-32.2-8.9l1.4-.4c1.4-.4 2.5-.6 2.7.6.2 1-.7 1.4-1.8 1.7l-2 .5-.3-2.4zm-.7-4.6l1.6-.4c.9-.2 1.8-.4 2 .6 0 .8-.6 1.5-1.4 1.5l-1.9.5-.3-2.2zm-2.9 11.2l6.7-1.7c3.6-.9 5.7-2.5 5.3-5.5-.1-1.4-1.3-2.5-2.7-2.4 1-.8 1.5-2.1 1.3-3.3-.4-2.6-3-2.7-6-1.9l-6.5 1.6 1.9 13.2zm8.5 3.8l1.2-.3c.8-.3 1.7-.4 2.6-.3.4.2-.2.4-1.2.6l-1.7.4-.9-.4zm-1.8-.8l.8.3 1.6-.4c.8-.2 1.2-.4.9-.5-.7-.1-1.3 0-2 .2l-1.3.4zm0 2.6L76 124c3-.7 4.6-1.3 3.5-1.9-1-.3-2.1-.3-3.1-.1.5-.3.9-.6.4-.9-1-.5-3.4-.1-6 .5l-5.6 1.3 5 2.4zm10.7-11.2l-.2-1.2c-.2-1.2-.4-2.1-.2-1.9.3.6.5 1.2.6 1.9l.3 1.7-.5-.5zm-.9-.8l.4.4-.3-1.6c-.1-.5-.2-1.1-.5-1.5-.2-.2-.1.6.1 1.4l.3 1.3zm2.7 5.7l-1.1-5.8c-.6-3.1-1.2-5.3-1.8-5.8-.3-.2-.4.2-.2 1.4-.2-.7-.5-1.4-.9-2-.5-.5-.3 1.5.2 4.2l1.1 5.6 2.7 2.4zm38.1-7.3l6.6 5.1-1.7 8 4.6-1.3.5-4.2 3.5 3.1 4.6-1.3-7.1-5.5 1.7-7.4-4.6 1.3-.4 3.8-3.2-2.8-4.5 1.2zm18.9-8.7v5.1l-2.8-1.2 1.5 3.6 1.4.4-.1 2.7 1.5 3.6v-5.5l2.6 1.2-1.5-3.6-1.2-.3.1-2.4-1.5-3.6zm-5.8-2.6l-4 3.1 2.8 1.2-3.7 1.2-1.2-.7-2.1 1.8-3.7 1.2 4.2-3.4-2.7-1.1 3.7-1.2 1 .7 1.8-1.6 3.9-1.2z" fill="#ff2719"/></svg>