<svg id="Шар_1" xmlns="http://www.w3.org/2000/svg" viewBox="0 0 93.8 79.3"><style>.st0{fill:#de2b20}</style><path class="st0" d="M88.9 36.9h-2.4V21.1c-.1-1.5-.7-2.9-1.9-4-1.1-1-2.6-1.5-4-1.4h-3.9L71.6 3.4c-.3-.8-1.2-1-1.9-.9L29.5 15.7H6.8c-3.1-.1-5.8 2.3-6 5.5v50.4c.1 3 2.7 5.5 5.7 5.5h74.2c3.1 0 5.6-2.4 5.8-5.5V55.8h2.4c2 0 3.5-1.5 3.5-3.5V40.4c0-1.9-1.6-3.5-3.5-3.5zM39.2 15.7l30.2-9.9 4 9.9H39.2zm23.7 24.7c0-.3.2-.5.5-.5h25.5c.3 0 .5.2.5.5v11.9c0 .3-.2.5-.5.5H63.4c-.3 0-.5-.2-.5-.5V40.4zm20.5-3.5h-20c-2 0-3.5 1.5-3.5 3.5v11.9c0 2 1.5 3.5 3.5 3.5h20.1v15.7c-.1 1.5-1.3 2.6-2.9 2.6H6.8c-1.5.1-2.8-1.1-2.9-2.5V21.3c.1-1.5 1.3-2.6 2.8-2.6h73.8c.9 0 1.5.2 1.9.7.5.5.9 1.2 1 1.8v15.7z"/><path class="st0" d="M20.1 24.2h-3c-.6 0-1 .4-1 1s.4 1 1 1h3c.6 0 1-.4 1-1s-.4-1-1-1zm14.8 0h-3c-.6 0-1 .4-1 1s.4 1 1 1h3c.6 0 1-.4 1-1s-.5-1-1-1zm14.7 0h-3c-.6 0-1 .4-1 1s.4 1 1 1h3c.6 0 1-.4 1-1s-.4-1-1-1zm11.8 2h3c.6 0 1-.4 1-1s-.4-1-1-1h-3c-.6 0-1 .4-1 1s.4 1 1 1zM26 66.6h-3c-.6 0-1 .4-1 1s.4 1 1 1h3c.6 0 1-.4 1-1s-.4-1-1-1zm14.8 0h-3c-.6 0-1 .4-1 1s.4 1 1 1h3c.6 0 1-.4 1-1s-.5-1-1-1zm14.7 0h-2.9c-.6 0-1 .4-1 1s.4 1 1 1h2.9c.6 0 1-.4 1-1s-.4-1-1-1zm11.8 2h2.9c.6 0 1-.4 1-1s-.4-1-1-1h-2.9c-.6 0-1 .4-1 1s.4 1 1 1zm4.5-24.5c-1.4-.1-2.5.9-2.6 2.2 0 1.2.9 2.3 2.1 2.4h.2c1.2 0 2.2-.9 2.3-2.1.2-1.3-.7-2.4-2-2.5zm-.3 2.6c-.2 0-.3-.2-.3-.3 0-.2.2-.4.4-.4s.3.2.3.4-.2.3-.4.3z"/></svg>