<svg id="Шар_1" xmlns="http://www.w3.org/2000/svg" viewBox="0 0 64 64"><style>.st0{fill:#de2b20}</style><path class="st0" d="M46 34c-.6 0-1-.4-1-1s.4-1 1-1h5c1-.1 1.9-1 2-2.1V23c-.1-1-1-1.9-2.1-2H46c-.6 0-1-.4-1-1s.4-1 1-1h5c2.2.1 3.9 1.8 4 3.9V30c-.1 2.2-1.8 3.9-3.9 4H46zm-27.8 0H12c-2.2-.1-3.9-1.8-4-3.9V23c.1-2.2 1.8-3.9 3.9-4H17c.6 0 1 .4 1 1s-.4 1-1 1h-5c-1 .1-1.9 1-2 2.1V30c.1 1 1 1.9 2.1 2h6.1c.6 0 1 .4 1 1s-.4 1-1 1z"/><path class="st0" d="M25.4 43.3c-.2 0-.4 0-.5-.1C19.5 39.8 16 33.1 16 26V16C16 4.9 24.3 1 31.4 1 39.2 1 47 5.6 47 16v16c0 4.4-4.4 8-8 8-.6 0-1-.4-1-1s.4-1 1-1c2.4 0 6-2.5 6-6V16c0-9.6-7.3-13-13.6-13C24.9 3 18 6.4 18 16v10c0 6.4 3.1 12.5 7.9 15.4.5.3.6.9.3 1.4-.1.3-.5.5-.8.5z"/><path class="st0" d="M61 63H2c-.3 0-.6-.1-.8-.4-.2-.2-.2-.5-.2-.8C2.3 55.7 7.1 51.1 13.2 50c9.8-1.8 9.8-4.2 9.8-5.8v-2.9c0-.6.4-1 1-1s1 .4 1 1v2.9c0 2.9-.8 5.9-11.4 7.8-4.8.8-8.8 4.4-10.3 9h56.4c-1.6-4.6-5.6-8.2-10.5-9C38.8 50 38 47.1 38 44.2V39c0-.6.4-1 1-1s1 .4 1 1v5.2c0 1.6 0 4.1 9.6 5.9 6 1.1 11 5.8 12.4 11.8.1.3 0 .6-.2.8-.2.2-.5.3-.8.3z"/><path class="st0" d="M36 43h-2c-2.2 0-4-1.8-4-4s1.8-4 4-4h2c2.2 0 4 1.8 4 4s-1.8 4-4 4zm-2-6c-1.1 0-2 .9-2 2s.9 2 2 2h2c1.1 0 2-.9 2-2s-.9-2-2-2h-2zm-2.6 25c-.3 0-.6-.1-.8-.4l-10-12.5c-.3-.4-.3-1.1.2-1.4.4-.3 1.1-.3 1.4.2l9.2 11.5 9.4-11.5c.3-.4 1-.5 1.4-.1.4.3.5 1 .1 1.4L32.2 61.6c-.2.3-.5.4-.8.4zM17 19c-.6 0-1-.4-1-1s.4-1 1-1c6.2 0 9-2.2 11.6-4.4C30.8 10.8 33 9 37 9c8.8 0 10 7.8 10 7.9.1.5-.3 1.1-.8 1.1-.5.1-1.1-.3-1.1-.8 0-.2-1-6.1-8-6.1-3.2 0-5 1.4-7.1 3.2-2.9 2.1-6 4.7-13 4.7z"/></svg>